<svg width="120" height="120" viewBox="0 0 120 120" fill="none" xmlns="http://www.w3.org/2000/svg">
<path d="M59.9958 3.75C41.607 3.75 27.4237 9.95322 17.8628 20.3354C8.34849 30.6669 3.75 44.7666 3.75 59.9958C3.75 75.225 8.34849 89.3247 17.8628 99.6563C19.7485 101.704 21.814 103.589 24.0562 105.296C23.0528 102.826 22.5 100.126 22.5 97.2951C22.5 96.1402 22.5925 95.0057 22.7706 93.8988C15.1864 85.2805 11.25 73.4047 11.25 59.9958C11.25 46.2323 15.3973 34.0841 23.3798 25.416C31.3158 16.7984 43.3804 11.25 59.9958 11.25C76.6112 11.25 88.6758 16.7984 96.6118 25.416C104.594 34.0841 108.742 46.2323 108.742 59.9958C108.742 73.7593 104.594 85.9075 96.6118 94.5756C89.5267 102.269 79.1507 107.517 65.1836 108.553L57.7411 113.859C56.7282 114.683 55.638 115.417 54.4833 116.049C56.2765 116.177 58.1141 116.242 59.9958 116.242C78.3846 116.242 92.5679 110.038 102.129 99.6563C111.643 89.3247 116.242 75.225 116.242 59.9958C116.242 44.7666 111.643 30.6669 102.129 20.3354C92.5679 9.95322 78.3846 3.75 59.9958 3.75Z" fill="#828282"/>
<path d="M64.2454 65.4713C62.4804 63.4328 59.3445 63.1669 57.2411 64.8774L44.1024 75.5619L45.21 71.7184C45.9786 69.0515 44.3708 66.2857 41.619 65.5409C38.8523 64.792 35.9859 66.371 35.2343 69.058L32.1906 79.9398L28.4932 88.5605C28.4252 88.7191 28.3651 88.8798 28.313 89.0421C26.9959 91.5051 26.25 94.3139 26.25 97.2953C26.25 107.047 34.2301 114.952 44.0741 114.952C48.4046 114.952 52.3744 113.422 55.4629 110.878L75.2798 96.7504C77.6039 95.0935 78.0703 91.9097 76.3139 89.6913C75.5491 88.7253 74.4913 88.1056 73.3542 87.8592L75.2373 86.3278C77.4385 84.5378 77.7256 81.3573 75.8786 79.224C75.0938 78.3177 74.0501 77.7461 72.9403 77.5259L73.5187 77.0555C75.7198 75.2655 76.007 72.085 74.1599 69.9517C72.3129 67.8184 69.0312 67.5402 66.83 69.3302L64.6843 71.0752C65.7634 69.3582 65.6526 67.0966 64.2454 65.4713Z" fill="#828282"/>
<path d="M89.4761 35.734C86.7924 34.4561 83.7891 33.7408 80.6188 33.7408C69.3268 33.7408 60.1541 42.8144 59.9938 54.0682C59.8335 42.8144 50.6608 33.7408 39.3689 33.7408C37.0783 33.7408 34.8749 34.1142 32.8163 34.8034C32.1944 36.0013 31.875 37.2751 31.875 38.4376C31.875 38.7187 31.8573 38.9957 31.823 39.2676C34.0937 38.1306 36.6566 37.4908 39.3689 37.4908C48.6898 37.4908 56.246 45.047 56.246 54.3679C56.246 57.3525 55.4712 60.1561 54.112 62.5887L54.8751 61.968C56.1554 60.9269 57.6533 60.3039 59.1928 60.0872C59.6894 58.3627 59.9671 56.5456 59.9938 54.6677C60.0202 56.5163 60.2897 58.3061 60.7718 60.0066C62.3625 60.0666 63.9338 60.5516 65.2945 61.4489C64.2978 59.2955 63.7417 56.8967 63.7417 54.3679C63.7417 45.047 71.2978 37.4908 80.6188 37.4908C84.2466 37.4908 87.6072 38.6355 90.3589 40.5834C90.1263 39.911 90 39.189 90 38.4376C90 37.5724 89.8231 36.6454 89.4761 35.734Z" fill="#828282"/>
<path d="M22.4918 54.3679C22.4918 60.767 26.0531 66.3343 31.3018 69.1959L30.27 72.8849C23.4409 69.5228 18.7418 62.4942 18.7418 54.3679C18.7418 50.5304 19.7897 46.9376 21.6151 43.8601C22.668 44.5794 23.9411 45.0001 25.3125 45.0001L25.3282 45.0001C23.5365 47.6802 22.4918 50.9021 22.4918 54.3679Z" fill="#828282"/>
<path d="M80.6188 74.995C80.0573 74.995 79.5011 74.9726 78.951 74.9286C79.2047 73.6888 79.1867 72.4004 78.8868 71.1572C79.4562 71.2153 80.034 71.245 80.6188 71.245C89.9397 71.245 97.4959 63.6889 97.4959 54.3679C97.4959 50.7451 96.3544 47.389 94.4115 44.6394C95.0854 44.8731 95.8091 45.0001 96.5625 45.0001C97.3469 45.0001 98.0991 44.8625 98.7964 44.61C100.359 47.5152 101.246 50.838 101.246 54.3679C101.246 65.76 92.0108 74.995 80.6188 74.995Z" fill="#828282"/>
<path d="M52.5 56.25C52.5 60.3921 49.1421 63.75 45 63.75C40.8579 63.75 37.5 60.3921 37.5 56.25C37.5 52.1079 40.8579 48.75 45 48.75C49.1421 48.75 52.5 52.1079 52.5 56.25Z" fill="#828282"/>
<path d="M67.5 56.25C67.5 60.3921 70.8579 63.75 75 63.75C79.1421 63.75 82.5 60.3921 82.5 56.25C82.5 52.1079 79.1421 48.75 75 48.75C70.8579 48.75 67.5 52.1079 67.5 56.25Z" fill="#828282"/>
<path d="M43.1234 23.3428C43.1757 24.8952 41.9597 26.1961 40.4072 26.2484C32.479 26.5157 28.125 33.138 28.125 38.4375C28.125 39.9908 26.8658 41.25 25.3125 41.25C23.7592 41.25 22.5 39.9908 22.5 38.4375C22.5 30.6121 28.7759 21.0123 40.2178 20.6266C41.7702 20.5743 43.0711 21.7904 43.1234 23.3428Z" fill="#828282"/>
<path d="M78.7516 23.3428C78.6993 24.8952 79.9153 26.1961 81.4678 26.2484C89.396 26.5157 93.75 33.138 93.75 38.4375C93.75 39.9908 95.0092 41.25 96.5625 41.25C98.1158 41.25 99.375 39.9908 99.375 38.4375C99.375 30.6121 93.0991 21.0123 81.6572 20.6266C80.1048 20.5743 78.8039 21.7904 78.7516 23.3428Z" fill="#828282"/>
</svg>
