<svg width="200" height="200" viewBox="0 0 200 200" fill="none" xmlns="http://www.w3.org/2000/svg">
<path d="M116.79 155.347C119.535 154.15 120.677 152.398 121.502 151.367C128.911 142.114 113.104 114.648 90.5371 98.7557C66.6195 77.9296 40.285 70.833 32.8767 80.0864C31.6052 81.6745 30.6087 83.8378 30.1937 86.2792L16.1311 167.187C15.6428 177.051 19.4126 180.799 21.2992 182.63C24.7177 185.948 31.3655 188.769 38.2991 186.328C65.0569 176.025 90.1243 166.972 116.79 155.347Z" fill="url(#paint0_linear_508_1439)"/>
<path d="M116.79 155.347C119.535 154.15 120.677 152.398 121.502 151.367C128.911 142.114 113.104 114.648 90.5371 98.7557C66.6195 77.9296 40.285 70.833 32.8767 80.0864C31.6052 81.6745 30.6087 83.8378 30.1937 86.2792L16.1311 167.187C15.6428 177.051 19.4126 180.799 21.2992 182.63C24.7177 185.948 31.3655 188.769 38.2991 186.328C65.0569 176.025 90.1243 166.972 116.79 155.347Z" fill="url(#paint1_linear_508_1439)"/>
<path d="M116.79 155.347C119.535 154.15 120.677 152.398 121.502 151.367C128.911 142.114 113.104 114.648 90.5371 98.7557C66.6195 77.9296 40.285 70.833 32.8767 80.0864C31.6052 81.6745 30.6087 83.8378 30.1937 86.2792L16.1311 167.187C15.6428 177.051 19.4126 180.799 21.2992 182.63C24.7177 185.948 31.3655 188.769 38.2991 186.328C65.0569 176.025 90.1243 166.972 116.79 155.347Z" fill="url(#paint2_linear_508_1439)"/>
<path d="M116.79 155.347C119.535 154.15 120.677 152.398 121.502 151.367C128.911 142.114 113.104 114.648 90.5371 98.7557C66.6195 77.9296 40.285 70.833 32.8767 80.0864C31.6052 81.6745 30.6087 83.8378 30.1937 86.2792L16.1311 167.187C15.6428 177.051 19.4126 180.799 21.2992 182.63C24.7177 185.948 31.3655 188.769 38.2991 186.328C65.0569 176.025 90.1243 166.972 116.79 155.347Z" fill="url(#paint3_linear_508_1439)"/>
<path d="M116.79 155.347C119.535 154.15 120.677 152.398 121.502 151.367C128.911 142.114 113.104 114.648 90.5371 98.7557C66.6195 77.9296 40.285 70.833 32.8767 80.0864C31.6052 81.6745 30.6087 83.8378 30.1937 86.2792L16.1311 167.187C15.6428 177.051 19.4126 180.799 21.2992 182.63C24.7177 185.948 31.3655 188.769 38.2991 186.328C65.0569 176.025 90.1243 166.972 116.79 155.347Z" fill="url(#paint4_radial_508_1439)"/>
<ellipse cx="78.4662" cy="113.668" rx="50.8139" ry="18.221" transform="rotate(39.7456 78.4662 113.668)" fill="url(#paint5_linear_508_1439)"/>
<ellipse cx="78.4662" cy="113.668" rx="50.8139" ry="18.221" transform="rotate(39.7456 78.4662 113.668)" fill="url(#paint6_radial_508_1439)"/>
<ellipse cx="78.4662" cy="113.668" rx="50.8139" ry="18.221" transform="rotate(39.7456 78.4662 113.668)" fill="url(#paint7_radial_508_1439)"/>
<circle cx="93.4756" cy="100" r="7.51953" fill="url(#paint8_radial_508_1439)"/>
<circle cx="93.4756" cy="100" r="7.51953" fill="url(#paint9_radial_508_1439)"/>
<circle cx="155.194" cy="143.164" r="7.51953" fill="url(#paint10_radial_508_1439)"/>
<circle cx="155.194" cy="143.164" r="7.51953" fill="url(#paint11_radial_508_1439)"/>
<circle cx="155.194" cy="143.164" r="7.51953" fill="url(#paint12_radial_508_1439)"/>
<circle cx="148.896" cy="43.8477" r="7.51953" fill="url(#paint13_radial_508_1439)"/>
<circle cx="148.896" cy="43.8477" r="7.51953" fill="url(#paint14_radial_508_1439)"/>
<circle cx="62.4429" cy="21.0449" r="7.51953" fill="url(#paint15_radial_508_1439)"/>
<circle cx="62.4429" cy="21.0449" r="7.51953" fill="url(#paint16_radial_508_1439)"/>
<circle cx="62.4429" cy="21.0449" r="7.51953" fill="url(#paint17_radial_508_1439)"/>
<circle cx="30.8022" cy="50.6836" r="7.51953" fill="url(#paint18_radial_508_1439)"/>
<circle cx="30.8022" cy="50.6836" r="7.51953" fill="url(#paint19_radial_508_1439)"/>
<path fill-rule="evenodd" clip-rule="evenodd" d="M119.4 13.0144C122.676 13.1675 125.207 15.9471 125.054 19.2227C124.843 23.7326 124.022 31.2455 122.063 39.2705C120.425 45.9784 117.904 53.4183 114.022 59.7969C114.961 64.7732 114.986 70.645 113.956 77.3217C113.456 80.5626 110.423 82.7843 107.182 82.2841C103.941 81.7839 101.719 78.7512 102.22 75.5104C102.45 74.0165 102.614 72.6176 102.719 71.3083C101.566 71.9092 100.386 72.3803 99.1811 72.717C94.4741 74.0322 89.9597 73.1206 86.4285 70.7683C79.7197 66.2991 76.6262 56.5192 81.8192 48.5238C86.7592 40.9177 97.0551 38.8498 104.884 44.2613C105.787 44.8853 106.635 45.5883 107.425 46.3684C108.674 43.2095 109.701 39.8389 110.527 36.4543C112.284 29.2556 113.012 22.5078 113.192 18.6681C113.345 15.3925 116.125 12.8612 119.4 13.0144ZM100.981 57.6424C100.079 55.7654 99.0086 54.6357 98.132 54.0298C95.6827 52.3369 92.9903 53.1253 91.778 54.9919C90.478 56.9935 91.1656 59.6553 93.0121 60.8853C93.7585 61.3826 94.7153 61.6349 95.9855 61.28C97.1349 60.9589 98.894 60.0263 100.981 57.6424Z" fill="url(#paint20_linear_508_1439)"/>
<path fill-rule="evenodd" clip-rule="evenodd" d="M119.4 13.0144C122.676 13.1675 125.207 15.9471 125.054 19.2227C124.843 23.7326 124.022 31.2455 122.063 39.2705C120.425 45.9784 117.904 53.4183 114.022 59.7969C114.961 64.7732 114.986 70.645 113.956 77.3217C113.456 80.5626 110.423 82.7843 107.182 82.2841C103.941 81.7839 101.719 78.7512 102.22 75.5104C102.45 74.0165 102.614 72.6176 102.719 71.3083C101.566 71.9092 100.386 72.3803 99.1811 72.717C94.4741 74.0322 89.9597 73.1206 86.4285 70.7683C79.7197 66.2991 76.6262 56.5192 81.8192 48.5238C86.7592 40.9177 97.0551 38.8498 104.884 44.2613C105.787 44.8853 106.635 45.5883 107.425 46.3684C108.674 43.2095 109.701 39.8389 110.527 36.4543C112.284 29.2556 113.012 22.5078 113.192 18.6681C113.345 15.3925 116.125 12.8612 119.4 13.0144ZM100.981 57.6424C100.079 55.7654 99.0086 54.6357 98.132 54.0298C95.6827 52.3369 92.9903 53.1253 91.778 54.9919C90.478 56.9935 91.1656 59.6553 93.0121 60.8853C93.7585 61.3826 94.7153 61.6349 95.9855 61.28C97.1349 60.9589 98.894 60.0263 100.981 57.6424Z" fill="url(#paint21_radial_508_1439)"/>
<path fill-rule="evenodd" clip-rule="evenodd" d="M119.4 13.0144C122.676 13.1675 125.207 15.9471 125.054 19.2227C124.843 23.7326 124.022 31.2455 122.063 39.2705C120.425 45.9784 117.904 53.4183 114.022 59.7969C114.961 64.7732 114.986 70.645 113.956 77.3217C113.456 80.5626 110.423 82.7843 107.182 82.2841C103.941 81.7839 101.719 78.7512 102.22 75.5104C102.45 74.0165 102.614 72.6176 102.719 71.3083C101.566 71.9092 100.386 72.3803 99.1811 72.717C94.4741 74.0322 89.9597 73.1206 86.4285 70.7683C79.7197 66.2991 76.6262 56.5192 81.8192 48.5238C86.7592 40.9177 97.0551 38.8498 104.884 44.2613C105.787 44.8853 106.635 45.5883 107.425 46.3684C108.674 43.2095 109.701 39.8389 110.527 36.4543C112.284 29.2556 113.012 22.5078 113.192 18.6681C113.345 15.3925 116.125 12.8612 119.4 13.0144ZM100.981 57.6424C100.079 55.7654 99.0086 54.6357 98.132 54.0298C95.6827 52.3369 92.9903 53.1253 91.778 54.9919C90.478 56.9935 91.1656 59.6553 93.0121 60.8853C93.7585 61.3826 94.7153 61.6349 95.9855 61.28C97.1349 60.9589 98.894 60.0263 100.981 57.6424Z" fill="url(#paint22_radial_508_1439)"/>
<path fill-rule="evenodd" clip-rule="evenodd" d="M119.4 13.0144C122.676 13.1675 125.207 15.9471 125.054 19.2227C124.843 23.7326 124.022 31.2455 122.063 39.2705C120.425 45.9784 117.904 53.4183 114.022 59.7969C114.961 64.7732 114.986 70.645 113.956 77.3217C113.456 80.5626 110.423 82.7843 107.182 82.2841C103.941 81.7839 101.719 78.7512 102.22 75.5104C102.45 74.0165 102.614 72.6176 102.719 71.3083C101.566 71.9092 100.386 72.3803 99.1811 72.717C94.4741 74.0322 89.9597 73.1206 86.4285 70.7683C79.7197 66.2991 76.6262 56.5192 81.8192 48.5238C86.7592 40.9177 97.0551 38.8498 104.884 44.2613C105.787 44.8853 106.635 45.5883 107.425 46.3684C108.674 43.2095 109.701 39.8389 110.527 36.4543C112.284 29.2556 113.012 22.5078 113.192 18.6681C113.345 15.3925 116.125 12.8612 119.4 13.0144ZM100.981 57.6424C100.079 55.7654 99.0086 54.6357 98.132 54.0298C95.6827 52.3369 92.9903 53.1253 91.778 54.9919C90.478 56.9935 91.1656 59.6553 93.0121 60.8853C93.7585 61.3826 94.7153 61.6349 95.9855 61.28C97.1349 60.9589 98.894 60.0263 100.981 57.6424Z" fill="url(#paint23_radial_508_1439)"/>
<path d="M99.7034 162.557C83.4162 161.426 71.9925 156.551 53.4845 141.26C37.5632 128.105 29.6586 116.436 27.0204 104.536L23.9639 122.121C25.213 129.004 30.5841 138.623 41.2287 148.242C55.1505 160.823 69.0119 169.726 82.7197 169.336C88.3615 167.133 94.0113 164.887 99.7034 162.557Z" fill="url(#paint24_radial_508_1439)"/>
<path d="M65.3561 176.018C57.5281 176.455 46.9418 170.068 35.9555 160.938C26.5805 152.832 21.9561 144.026 20.9828 139.274L17.8789 157.133C18.6467 160.151 20.9849 164.255 27.7523 171.191C35.3198 178.948 42.9298 181.967 47.449 182.825C50.6557 181.603 53.843 180.393 57.0169 179.188C59.8057 178.129 62.5841 177.074 65.3561 176.018Z" fill="url(#paint25_radial_508_1439)"/>
<path fill-rule="evenodd" clip-rule="evenodd" d="M174.395 81.9292C151.908 77.5364 138.621 87.8381 134.409 92.4583C131.967 95.1368 127.817 95.3287 125.138 92.887C122.46 90.4453 122.268 86.2946 124.709 83.6161C131.24 76.4525 148.909 63.5775 176.911 69.0477C180.468 69.7426 182.789 73.1896 182.094 76.7467C181.399 80.3038 177.952 82.6241 174.395 81.9292Z" fill="url(#paint26_radial_508_1439)"/>
<path fill-rule="evenodd" clip-rule="evenodd" d="M174.395 81.9292C151.908 77.5364 138.621 87.8381 134.409 92.4583C131.967 95.1368 127.817 95.3287 125.138 92.887C122.46 90.4453 122.268 86.2946 124.709 83.6161C131.24 76.4525 148.909 63.5775 176.911 69.0477C180.468 69.7426 182.789 73.1896 182.094 76.7467C181.399 80.3038 177.952 82.6241 174.395 81.9292Z" fill="url(#paint27_radial_508_1439)"/>
<path d="M80.3442 51.3219C80.7281 50.373 81.213 49.4368 81.8059 48.5239C86.7459 40.9178 97.0418 38.8499 104.871 44.2614C105.774 44.8854 106.621 45.5884 107.411 46.3685C107.667 45.7231 107.912 45.0688 108.149 44.4074C108.161 44.4474 108.173 44.4872 108.184 44.5267C106.576 49.5927 102.967 55.0157 100.962 57.632C100.062 55.7613 98.9937 54.6347 98.1187 54.0299C95.6695 52.3369 92.9771 53.1254 91.7648 54.992C91.7176 55.0647 91.673 55.1382 91.631 55.2124L80.3442 51.3219Z" fill="url(#paint28_radial_508_1439)"/>
<path d="M80.3442 51.3219C80.7281 50.373 81.213 49.4368 81.8059 48.5239C86.7459 40.9178 97.0418 38.8499 104.871 44.2614C105.774 44.8854 106.621 45.5884 107.411 46.3685C107.667 45.7231 107.912 45.0688 108.149 44.4074C108.161 44.4474 108.173 44.4872 108.184 44.5267C106.576 49.5927 102.967 55.0157 100.962 57.632C100.062 55.7613 98.9937 54.6347 98.1187 54.0299C95.6695 52.3369 92.9771 53.1254 91.7648 54.992C91.7176 55.0647 91.673 55.1382 91.631 55.2124L80.3442 51.3219Z" fill="url(#paint29_radial_508_1439)"/>
<path fill-rule="evenodd" clip-rule="evenodd" d="M86.5098 141.288C82.2334 138.924 77.776 136.061 73.2925 132.754C80.0821 124.338 92.2109 113.3 108.025 105.329C134.009 92.2311 162.659 99.34 174.333 103.968C178.344 105.558 180.306 110.099 178.716 114.11C177.126 118.121 172.585 120.083 168.574 118.493C158.569 114.527 135.171 109.143 115.058 119.282C101.792 125.968 91.9285 134.958 86.5098 141.288Z" fill="url(#paint30_linear_508_1439)"/>
<path fill-rule="evenodd" clip-rule="evenodd" d="M86.5098 141.288C82.2334 138.924 77.776 136.061 73.2925 132.754C80.0821 124.338 92.2109 113.3 108.025 105.329C134.009 92.2311 162.659 99.34 174.333 103.968C178.344 105.558 180.306 110.099 178.716 114.11C177.126 118.121 172.585 120.083 168.574 118.493C158.569 114.527 135.171 109.143 115.058 119.282C101.792 125.968 91.9285 134.958 86.5098 141.288Z" fill="url(#paint31_radial_508_1439)"/>
<path fill-rule="evenodd" clip-rule="evenodd" d="M86.5098 141.288C82.2334 138.924 77.776 136.061 73.2925 132.754C80.0821 124.338 92.2109 113.3 108.025 105.329C134.009 92.2311 162.659 99.34 174.333 103.968C178.344 105.558 180.306 110.099 178.716 114.11C177.126 118.121 172.585 120.083 168.574 118.493C158.569 114.527 135.171 109.143 115.058 119.282C101.792 125.968 91.9285 134.958 86.5098 141.288Z" fill="url(#paint32_radial_508_1439)"/>
<path fill-rule="evenodd" clip-rule="evenodd" d="M86.5098 141.288C82.2334 138.924 77.776 136.061 73.2925 132.754C80.0821 124.338 92.2109 113.3 108.025 105.329C134.009 92.2311 162.659 99.34 174.333 103.968C178.344 105.558 180.306 110.099 178.716 114.11C177.126 118.121 172.585 120.083 168.574 118.493C158.569 114.527 135.171 109.143 115.058 119.282C101.792 125.968 91.9285 134.958 86.5098 141.288Z" fill="url(#paint33_radial_508_1439)"/>
<path fill-rule="evenodd" clip-rule="evenodd" d="M63.6989 41.5835C61.6009 37.8131 56.8437 36.4575 53.0734 38.5555C49.3031 40.6535 47.9474 45.4107 50.0454 49.181C53.2135 54.8744 57.1144 62.9119 57.6137 73.2611C58.0488 82.2804 55.9249 93.7196 47.29 107.441C50.2777 111.395 53.8856 115.493 58.0126 119.563C70.187 101.853 73.871 85.9916 73.2205 72.5082C72.5479 58.5654 67.2691 47.9994 63.6989 41.5835Z" fill="url(#paint34_radial_508_1439)"/>
<path fill-rule="evenodd" clip-rule="evenodd" d="M63.6989 41.5835C61.6009 37.8131 56.8437 36.4575 53.0734 38.5555C49.3031 40.6535 47.9474 45.4107 50.0454 49.181C53.2135 54.8744 57.1144 62.9119 57.6137 73.2611C58.0488 82.2804 55.9249 93.7196 47.29 107.441C50.2777 111.395 53.8856 115.493 58.0126 119.563C70.187 101.853 73.871 85.9916 73.2205 72.5082C72.5479 58.5654 67.2691 47.9994 63.6989 41.5835Z" fill="url(#paint35_radial_508_1439)"/>
<path d="M114.01 59.8022C114.948 64.7773 114.973 70.6473 113.943 77.3217C113.442 80.5625 110.41 82.7842 107.169 82.284C103.928 81.7838 101.706 78.7512 102.207 75.5103C102.437 74.0192 102.6 72.6227 102.705 71.3155C108.842 67.4623 112.894 62.3353 114.01 59.8022Z" fill="url(#paint36_radial_508_1439)"/>
<defs>
<linearGradient id="paint0_linear_508_1439" x1="26.385" y1="124.902" x2="76.7757" y2="168.652" gradientUnits="userSpaceOnUse">
<stop stop-color="#B3843C"/>
<stop offset="1" stop-color="#F17A61"/>
</linearGradient>
<linearGradient id="paint1_linear_508_1439" x1="20.8168" y1="131.673" x2="35.5647" y2="134.668" gradientUnits="userSpaceOnUse">
<stop stop-color="#B1853B"/>
<stop offset="1" stop-color="#B1853B" stop-opacity="0"/>
</linearGradient>
<linearGradient id="paint2_linear_508_1439" x1="123.349" y1="148.926" x2="98.4554" y2="153.027" gradientUnits="userSpaceOnUse">
<stop stop-color="#F9C26C"/>
<stop offset="1" stop-color="#F9C26C" stop-opacity="0"/>
</linearGradient>
<linearGradient id="paint3_linear_508_1439" x1="69.7183" y1="77.4413" x2="53.7288" y2="104.59" gradientUnits="userSpaceOnUse">
<stop stop-color="#E6BF69"/>
<stop offset="1" stop-color="#E6BF69" stop-opacity="0"/>
</linearGradient>
<radialGradient id="paint4_radial_508_1439" cx="0" cy="0" r="1" gradientUnits="userSpaceOnUse" gradientTransform="translate(78.7691 111.913) rotate(-49.3383) scale(27.2083 63.7626)">
<stop stop-color="#F5BD55" stop-opacity="0"/>
<stop offset="0.836376" stop-color="#FCCB57"/>
<stop offset="1" stop-color="#FCCB57" stop-opacity="0"/>
</radialGradient>
<linearGradient id="paint5_linear_508_1439" x1="32.1717" y1="111.654" x2="135.171" y2="116.688" gradientUnits="userSpaceOnUse">
<stop stop-color="#F3AB2C"/>
<stop offset="1" stop-color="#B57F1E"/>
</linearGradient>
<radialGradient id="paint6_radial_508_1439" cx="0" cy="0" r="1" gradientUnits="userSpaceOnUse" gradientTransform="translate(52.8353 128.255) rotate(-109.125) scale(40.4844 11.3392)">
<stop offset="0.423414" stop-color="#CA851E"/>
<stop offset="1" stop-color="#CA851E" stop-opacity="0"/>
</radialGradient>
<radialGradient id="paint7_radial_508_1439" cx="0" cy="0" r="1" gradientUnits="userSpaceOnUse" gradientTransform="translate(95.2219 128.825) rotate(-73.0972) scale(40.6846 23.8253)">
<stop stop-color="#BC7F28"/>
<stop offset="1" stop-color="#BC7F28" stop-opacity="0"/>
</radialGradient>
<radialGradient id="paint8_radial_508_1439" cx="0" cy="0" r="1" gradientUnits="userSpaceOnUse" gradientTransform="translate(96.7959 97.9492) rotate(138.668) scale(10.7944)">
<stop stop-color="#5AC0FF"/>
<stop offset="1" stop-color="#3279B6"/>
</radialGradient>
<radialGradient id="paint9_radial_508_1439" cx="0" cy="0" r="1" gradientUnits="userSpaceOnUse" gradientTransform="translate(94.9549 98.964) rotate(160.051) scale(10.8399 11.8819)">
<stop offset="0.534713" stop-color="#3A619E" stop-opacity="0"/>
<stop offset="1" stop-color="#3A619E"/>
</radialGradient>
<radialGradient id="paint10_radial_508_1439" cx="0" cy="0" r="1" gradientUnits="userSpaceOnUse" gradientTransform="translate(159.551 139.986) rotate(134.569) scale(12.3596)">
<stop stop-color="#FDD46C"/>
<stop offset="1" stop-color="#F09C53"/>
</radialGradient>
<radialGradient id="paint11_radial_508_1439" cx="0" cy="0" r="1" gradientUnits="userSpaceOnUse" gradientTransform="translate(156.595 139.329) rotate(100.827) scale(12.2427)">
<stop offset="0.792052" stop-color="#E76260" stop-opacity="0"/>
<stop offset="0.964251" stop-color="#E76260"/>
</radialGradient>
<radialGradient id="paint12_radial_508_1439" cx="0" cy="0" r="1" gradientUnits="userSpaceOnUse" gradientTransform="translate(158.782 144.405) rotate(-147.558) scale(12.3982 14.6006)">
<stop offset="0.482355" stop-color="#AA885A" stop-opacity="0"/>
<stop offset="0.90682" stop-color="#AA885A"/>
</radialGradient>
<radialGradient id="paint13_radial_508_1439" cx="0" cy="0" r="1" gradientUnits="userSpaceOnUse" gradientTransform="translate(154.28 40.9216) rotate(132.387) scale(12.8757)">
<stop stop-color="#FF46AA"/>
<stop offset="1" stop-color="#E3189D"/>
</radialGradient>
<radialGradient id="paint14_radial_508_1439" cx="0" cy="0" r="1" gradientUnits="userSpaceOnUse" gradientTransform="translate(152.069 45.2148) rotate(-173.29) scale(11.7012 15.6599)">
<stop offset="0.522105" stop-color="#B63173" stop-opacity="0"/>
<stop offset="1" stop-color="#B63173"/>
</radialGradient>
<radialGradient id="paint15_radial_508_1439" cx="0" cy="0" r="1" gradientUnits="userSpaceOnUse" gradientTransform="translate(67.37 18.035) rotate(139.574) scale(11.5074)">
<stop stop-color="#FFF46F"/>
<stop offset="1" stop-color="#EFB93C"/>
</radialGradient>
<radialGradient id="paint16_radial_508_1439" cx="0" cy="0" r="1" gradientUnits="userSpaceOnUse" gradientTransform="translate(65.724 19.8273) rotate(-178.519) scale(11.9665 11.3936)">
<stop offset="0.558644" stop-color="#AA904B" stop-opacity="0"/>
<stop offset="0.943632" stop-color="#AA904B"/>
</radialGradient>
<radialGradient id="paint17_radial_508_1439" cx="0" cy="0" r="1" gradientUnits="userSpaceOnUse" gradientTransform="translate(64.3733 16.7969) rotate(102.339) scale(12.7956)">
<stop offset="0.771901" stop-color="#C47072" stop-opacity="0"/>
<stop offset="1" stop-color="#C47072"/>
</radialGradient>
<radialGradient id="paint18_radial_508_1439" cx="0" cy="0" r="1" gradientUnits="userSpaceOnUse" gradientTransform="translate(36.1871 47.7576) rotate(132.387) scale(12.8757)">
<stop stop-color="#FF46AA"/>
<stop offset="1" stop-color="#E3189D"/>
</radialGradient>
<radialGradient id="paint19_radial_508_1439" cx="0" cy="0" r="1" gradientUnits="userSpaceOnUse" gradientTransform="translate(33.9761 52.0508) rotate(-173.29) scale(11.7012 15.6599)">
<stop offset="0.522105" stop-color="#B63173" stop-opacity="0"/>
<stop offset="1" stop-color="#B63173"/>
</radialGradient>
<linearGradient id="paint20_linear_508_1439" x1="119.139" y1="13.0078" x2="91.1275" y2="80.1431" gradientUnits="userSpaceOnUse">
<stop stop-color="#20B2EE"/>
<stop offset="1" stop-color="#2689DA"/>
</linearGradient>
<radialGradient id="paint21_radial_508_1439" cx="0" cy="0" r="1" gradientUnits="userSpaceOnUse" gradientTransform="translate(112.991 34.8166) rotate(128.217) scale(48.504 29.6688)">
<stop offset="0.80204" stop-color="#4274D2" stop-opacity="0"/>
<stop offset="0.950917" stop-color="#4274D2"/>
</radialGradient>
<radialGradient id="paint22_radial_508_1439" cx="0" cy="0" r="1" gradientUnits="userSpaceOnUse" gradientTransform="translate(110.565 29.1992) rotate(12.0948) scale(6.99112 23.4697)">
<stop stop-color="#4D8EC0"/>
<stop offset="1" stop-color="#4D8EC0" stop-opacity="0"/>
</radialGradient>
<radialGradient id="paint23_radial_508_1439" cx="0" cy="0" r="1" gradientUnits="userSpaceOnUse" gradientTransform="translate(124.432 14.0625) rotate(141.953) scale(8.55649 7.69287)">
<stop stop-color="#5ADEFF"/>
<stop offset="1" stop-color="#5ADEFF" stop-opacity="0"/>
</radialGradient>
<radialGradient id="paint24_radial_508_1439" cx="0" cy="0" r="1" gradientUnits="userSpaceOnUse" gradientTransform="translate(70.1349 156.738) rotate(133.21) scale(26.5295 58.0844)">
<stop stop-color="#3365FF"/>
<stop offset="1" stop-color="#356DB9"/>
</radialGradient>
<radialGradient id="paint25_radial_508_1439" cx="0" cy="0" r="1" gradientUnits="userSpaceOnUse" gradientTransform="translate(46.307 175.098) rotate(131.598) scale(16.3761 41.4246)">
<stop stop-color="#3365FF"/>
<stop offset="1" stop-color="#356DB9"/>
</radialGradient>
<radialGradient id="paint26_radial_508_1439" cx="0" cy="0" r="1" gradientUnits="userSpaceOnUse" gradientTransform="translate(172.088 74.3166) rotate(168.283) scale(26.9284 10.0463)">
<stop stop-color="#FF3BA9"/>
<stop offset="1" stop-color="#F422A7"/>
</radialGradient>
<radialGradient id="paint27_radial_508_1439" cx="0" cy="0" r="1" gradientUnits="userSpaceOnUse" gradientTransform="translate(152.607 95.801) rotate(-127.355) scale(27.765 49.483)">
<stop offset="0.752144" stop-color="#B8306F" stop-opacity="0"/>
<stop offset="1" stop-color="#B8306F"/>
</radialGradient>
<radialGradient id="paint28_radial_508_1439" cx="0" cy="0" r="1" gradientUnits="userSpaceOnUse" gradientTransform="translate(106.417 58.3836) rotate(-131.325) scale(18.4046 13.7576)">
<stop stop-color="#336BAF"/>
<stop offset="1" stop-color="#336BAF" stop-opacity="0"/>
</radialGradient>
<radialGradient id="paint29_radial_508_1439" cx="0" cy="0" r="1" gradientUnits="userSpaceOnUse" gradientTransform="translate(108.184 46.5815) rotate(-127.657) scale(11.5944 4.69755)">
<stop stop-color="#49A4D4"/>
<stop offset="1" stop-color="#49A4D4" stop-opacity="0"/>
</radialGradient>
<linearGradient id="paint30_linear_508_1439" x1="90.3145" y1="135.593" x2="174.122" y2="113.63" gradientUnits="userSpaceOnUse">
<stop stop-color="#3797E2"/>
<stop offset="1" stop-color="#37AEFF"/>
</linearGradient>
<radialGradient id="paint31_radial_508_1439" cx="0" cy="0" r="1" gradientUnits="userSpaceOnUse" gradientTransform="translate(121.314 149.297) rotate(-129.838) scale(49.8751 125.022)">
<stop offset="0.622552" stop-color="#526579" stop-opacity="0"/>
<stop offset="0.962126" stop-color="#526579"/>
</radialGradient>
<radialGradient id="paint32_radial_508_1439" cx="0" cy="0" r="1" gradientUnits="userSpaceOnUse" gradientTransform="translate(149.326 122.379) rotate(94.3987) scale(17.12 34.4199)">
<stop offset="0.396078" stop-color="#6972FF"/>
<stop offset="1" stop-color="#6972FF" stop-opacity="0"/>
</radialGradient>
<radialGradient id="paint33_radial_508_1439" cx="0" cy="0" r="1" gradientUnits="userSpaceOnUse" gradientTransform="translate(174.712 107.991) rotate(-68.8186) scale(4.69394 3.70172)">
<stop stop-color="#55BFFF"/>
<stop offset="1" stop-color="#55BFFF" stop-opacity="0"/>
</radialGradient>
<radialGradient id="paint34_radial_508_1439" cx="0" cy="0" r="1" gradientUnits="userSpaceOnUse" gradientTransform="translate(67.7729 40.2266) rotate(99.4229) scale(45.699 17.1207)">
<stop stop-color="#FF3AAA"/>
<stop offset="1" stop-color="#FD2F89"/>
</radialGradient>
<radialGradient id="paint35_radial_508_1439" cx="0" cy="0" r="1" gradientUnits="userSpaceOnUse" gradientTransform="translate(43.9132 87.3507) rotate(31.1757) scale(30.0528 94.3143)">
<stop offset="0.803698" stop-color="#DB2C6E" stop-opacity="0"/>
<stop offset="1" stop-color="#DB2C6E"/>
</radialGradient>
<radialGradient id="paint36_radial_508_1439" cx="0" cy="0" r="1" gradientUnits="userSpaceOnUse" gradientTransform="translate(111.524 71.0783) rotate(98.0559) scale(22.1086 12.3044)">
<stop stop-color="#4AB5F8"/>
<stop offset="1" stop-color="#4AB5F8" stop-opacity="0"/>
</radialGradient>
</defs>
</svg>
