<svg width="25" height="25" viewBox="0 0 25 25" fill="none" xmlns="http://www.w3.org/2000/svg">
<g clip-path="url(#clip0_576_967)">
<path fill-rule="evenodd" clip-rule="evenodd" d="M14.2857 1.78571C14.2857 1.31211 14.0976 0.85791 13.7627 0.523024C13.4278 0.188137 12.9736 0 12.5 0C12.0264 0 11.5722 0.188137 11.2373 0.523024C10.9024 0.85791 10.7143 1.31211 10.7143 1.78571V10.7143H1.78571C1.31211 10.7143 0.85791 10.9024 0.523024 11.2373C0.188137 11.5722 0 12.0264 0 12.5C0 12.9736 0.188137 13.4278 0.523024 13.7627C0.85791 14.0976 1.31211 14.2857 1.78571 14.2857H10.7143V23.2143C10.7143 23.6879 10.9024 24.1421 11.2373 24.477C11.5722 24.8119 12.0264 25 12.5 25C12.9736 25 13.4278 24.8119 13.7627 24.477C14.0976 24.1421 14.2857 23.6879 14.2857 23.2143V14.2857H23.2143C23.6879 14.2857 24.1421 14.0976 24.477 13.7627C24.8119 13.4278 25 12.9736 25 12.5C25 12.0264 24.8119 11.5722 24.477 11.2373C24.1421 10.9024 23.6879 10.7143 23.2143 10.7143H14.2857V1.78571Z" fill="white"/>
</g>
<defs>
<clipPath id="clip0_576_967">
<rect width="25" height="25" fill="white"/>
</clipPath>
</defs>
</svg>
