<svg width="120" height="120" viewBox="0 0 120 120" fill="none" xmlns="http://www.w3.org/2000/svg">
<path d="M109.688 52.5009C109.688 50.0561 108.752 47.8298 107.219 46.1608C106.179 41.681 104.612 37.4976 102.533 33.6988C100.809 26.6911 95.3568 19.7069 86.6439 17.5448C79.5899 13.572 70.7456 11.25 59.9968 11.25C43.3815 11.25 31.3168 16.7984 23.3809 25.416C17.2705 32.0512 13.4074 40.7255 11.9314 50.6025C11.6429 50.6061 11.3522 50.6235 11.0603 50.6552C7.89652 50.9992 5.21555 52.9548 3.87793 55.6521C4.67727 42.0996 9.26104 29.6771 17.8639 20.3354C27.4248 9.95322 41.608 3.75 59.9968 3.75C78.3856 3.75 92.5689 9.95322 102.13 20.3354C110.873 29.8295 115.465 42.5056 116.152 56.3161C113.898 55.9211 111.571 56.4018 109.688 57.6695V52.5009Z" fill="#CDCDCD"/>
<path d="M90.147 100.239C94.064 101.492 97.9247 101.532 101.292 100.543C103.773 99.8146 105.986 98.5279 107.756 96.7575C111.17 93.3438 112.271 88.4512 113.28 83.9688C113.774 81.7753 114.245 79.6799 114.955 77.9044L119.276 67.7223C120.662 65.2607 119.74 62.0782 117.223 60.6337C114.72 59.1969 111.589 60.0259 110.23 62.4854L105.938 69.3274V52.5007C105.938 49.3941 103.419 46.8757 100.313 46.8757C98.5062 46.8757 96.8987 47.7272 95.8695 49.0507C95.1274 46.5335 92.6927 44.8037 89.9782 45.0443C87.352 45.277 85.308 47.2791 84.9171 49.7712C84.8522 50.1844 84.8328 50.611 84.8638 51.0453L84.8717 51.1441L86.3491 67.815L86.2398 67.8628L74.2465 60.9384C71.5561 59.3851 68.1159 60.3069 66.5626 62.9973C65.0093 65.6877 65.9311 69.1279 68.6215 70.6812L68.9177 70.8522C67.2096 71.0496 65.6134 72.0249 64.6876 73.6284C63.1343 76.3188 64.0561 79.759 66.7465 81.3123L76.0185 86.6655C78.4175 88.3302 79.7497 90.3578 81.1025 92.4166C82.7436 94.9141 84.4147 97.4574 88.0567 99.4546C88.7537 99.7549 89.4511 100.016 90.147 100.239Z" fill="#CDCDCD"/>
<path d="M34.5086 103.076C34.1323 103.248 33.7491 103.41 33.359 103.563C30.1767 104.807 26.8766 105.258 23.6832 105.008C32.8529 112.134 45.0323 116.242 59.9968 116.242C74.9788 116.242 87.1692 112.124 96.3426 104.983C93.1404 104.979 89.8135 104.295 86.5729 102.899L86.4095 102.828L86.2536 102.743L86.1818 102.703C79.2048 106.519 70.5122 108.742 59.9968 108.742C49.8287 108.742 41.3648 106.664 34.5086 103.076Z" fill="#CDCDCD"/>
<path d="M60.0002 105C53.8059 105 48.7502 99.9443 48.7502 93.75C48.7502 87.5557 53.8059 82.5 60.0002 82.5C66.1945 82.5 71.2502 87.5557 71.2502 93.75C71.2502 99.9443 66.1945 105 60.0002 105Z" fill="#CDCDCD"/>
<path d="M25.9519 47.999C27.3048 45.6108 30.3598 44.7056 32.7754 45.9772C34.7015 46.9911 35.6396 49.0828 35.2549 51.0996L36.635 48.6633C38.0508 46.164 41.2479 45.2167 43.7758 46.5475C46.3038 47.8782 47.2054 50.9831 45.7896 53.4824L45.4176 54.1391C46.5453 53.9377 47.7402 54.0919 48.8143 54.6573C51.3422 55.988 52.2438 59.0929 50.8281 61.5922L49.6168 63.7303C50.7799 63.5435 52.0058 63.738 53.083 64.3669C55.5569 65.8113 56.2906 68.9854 54.7099 71.4044L41.2311 92.0308C39.2566 95.568 36.0772 98.4738 31.9938 100.07C22.7114 103.699 12.2727 99.1859 8.67825 89.9908C7.57932 87.1795 7.24736 84.256 7.58138 81.448C7.57071 81.2757 7.56811 81.1021 7.57379 80.9275L7.8826 71.4358L6.74164 60.0529C6.45991 57.2422 8.58076 54.6967 11.4656 54.383C14.335 54.071 16.8705 56.0864 17.1288 58.8844L17.5012 62.9169L25.9519 47.999Z" fill="#CDCDCD"/>
<path d="M40.4075 26.2484C41.9599 26.1961 43.1759 24.8952 43.1236 23.3428C43.0713 21.7904 41.7704 20.5743 40.218 20.6266C28.7761 21.0123 22.5002 30.6121 22.5002 38.4375C22.5002 39.9908 23.7594 41.25 25.3127 41.25C26.866 41.25 28.1252 39.9908 28.1252 38.4375C28.1252 33.138 32.4792 26.5157 40.4075 26.2484Z" fill="#CDCDCD"/>
<path d="M82.4998 33.75C84.7623 33.75 86.9469 34.084 89.0069 34.7053C89.6627 35.9316 89.9998 37.2434 89.9998 38.4376C89.9998 38.6521 90.0101 38.8643 90.0302 39.0735C87.7255 38.0616 85.1782 37.5 82.4998 37.5C72.1444 37.5 63.7498 45.8947 63.7498 56.25C63.7498 57.5166 63.8753 58.7539 64.1148 59.95C63.8235 60.3148 63.5559 60.7058 63.3154 61.1224C62.4872 62.557 62.0811 64.1196 62.0588 65.6661C60.7371 62.8016 59.9998 59.6119 59.9998 56.25C59.9998 43.8236 70.0733 33.75 82.4998 33.75Z" fill="#CDCDCD"/>
<path d="M81.288 48.7731C81.0692 48.7578 80.8482 48.75 80.6254 48.75C76.0253 48.75 72.199 52.0632 71.4026 56.4334C73.0063 56.4264 74.633 56.8312 76.122 57.6909L81.9878 61.0775L81.1339 51.4431L81.1236 51.3117C81.0723 50.5922 81.1044 49.8813 81.2129 49.1902C81.2348 49.0502 81.2599 48.9111 81.288 48.7731Z" fill="#CDCDCD"/>
<path d="M81.4675 26.2484C79.9151 26.1961 78.6991 24.8952 78.7514 23.3428C78.8037 21.7904 80.1046 20.5743 81.657 20.6266C93.0989 21.0123 99.3748 30.6121 99.3748 38.4375C99.3748 39.9908 98.1156 41.25 96.5623 41.25C95.009 41.25 93.7498 39.9908 93.7498 38.4375C93.7498 33.138 89.3958 26.5157 81.4675 26.2484Z" fill="#CDCDCD"/>
</svg>
