<svg width="16" height="16" viewBox="0 0 16 16" fill="none" xmlns="http://www.w3.org/2000/svg">
<g clip-path="url(#clip0_1076_1819)">
<path d="M12.9056 0.618661C12.3198 0.0328747 11.3701 0.0328746 10.7843 0.618661L0.795469 10.6075C0.719667 10.6833 0.670234 10.7815 0.654463 10.8875L0.0366961 15.0408C0.013393 15.1975 0.0657016 15.3559 0.177703 15.4679C0.289704 15.5799 0.448149 15.6322 0.604818 15.6089L4.75812 14.9912C4.86415 14.9754 4.96231 14.926 5.03811 14.8502L15.0269 4.8613C15.6127 4.27552 15.6127 3.32577 15.0269 2.73998L12.9056 0.618661ZM9.94556 2.87162L12.774 5.70005L11.724 6.75008L8.89553 3.92165L9.94556 2.87162ZM11.3704 7.10363L4.67307 13.801L1.84465 10.9725L8.54198 4.27521L11.3704 7.10363ZM4.22452 14.0595L2.04561 14.3836L1.262 13.6L1.5861 11.4211L4.22452 14.0595Z" fill="#4E4E4E"/>
</g>
<defs>
<clipPath id="clip0_1076_1819">
<rect width="16" height="16" fill="white"/>
</clipPath>
</defs>
</svg>
