<svg width="120" height="120" viewBox="0 0 120 120" fill="none" xmlns="http://www.w3.org/2000/svg">
<path d="M59.9958 112.492C95 112.492 112.492 88.9884 112.492 59.9958C112.492 31.0032 95 7.5 59.9958 7.5C24.9916 7.5 7.5 31.0032 7.5 59.9958C7.5 88.9884 24.9916 112.492 59.9958 112.492Z" fill="#FFB02E"/>
<path d="M37.5 80.625V69.1475C37.5 66.1665 35.0835 63.75 32.1026 63.75C28.9497 63.75 26.4581 66.4428 26.4121 69.5953C26.3376 74.7008 25.6319 81.4561 22.5001 82.5C11.2497 86.25 7.50021 103.125 16.875 110.625C24.3753 116.625 31.875 116.25 37.5 116.25H47.8648C50.4248 116.25 52.5 114.175 52.5 111.615C52.5 109.859 51.5081 108.254 49.9377 107.469L48.75 106.875H51.4473C53.168 106.875 54.668 105.704 55.0853 104.034L55.3406 103.013C55.8026 101.165 54.4049 99.375 52.5 99.375L53.7345 98.7578C55.2762 97.9869 56.25 96.4112 56.25 94.6875C56.25 92.9638 55.2762 91.3881 53.7345 90.6172L52.5 90H59.0625C61.6514 90 63.75 87.9013 63.75 85.3125C63.75 82.7237 61.6514 80.625 59.0625 80.625H37.5Z" fill="#FFB02E"/>
<path d="M39.0712 60.8416C47.782 60.8416 54.8436 53.7801 54.8436 45.0692C54.8436 36.3584 47.782 29.2969 39.0712 29.2969C30.3604 29.2969 23.2988 36.3584 23.2988 45.0692C23.2988 53.7801 30.3604 60.8416 39.0712 60.8416Z" fill="white"/>
<path d="M80.8806 61.1292C89.6709 61.1292 96.7968 54.0033 96.7968 45.213C96.7968 36.4228 89.6709 29.2969 80.8806 29.2969C72.0904 29.2969 64.9645 36.4228 64.9645 45.213C64.9645 54.0033 72.0904 61.1292 80.8806 61.1292Z" fill="white"/>
<path d="M37.5 80.625V69.1475C37.5 66.1665 35.0835 63.75 32.1026 63.75C28.9497 63.75 26.4581 66.4428 26.4121 69.5953C26.3376 74.7008 25.6319 81.4561 22.5001 82.5C11.2497 86.25 7.50021 103.125 16.875 110.625C24.3753 116.625 31.875 116.25 37.5 116.25H47.8648C50.4248 116.25 52.5 114.175 52.5 111.615C52.5 109.859 51.5081 108.254 49.9377 107.469L48.75 106.875H51.4473C53.168 106.875 54.668 105.704 55.0853 104.034L55.3406 103.013C55.8026 101.165 54.4049 99.375 52.5 99.375L53.7345 98.7578C55.2762 97.9869 56.25 96.4112 56.25 94.6875C56.25 92.9638 55.2762 91.3881 53.7345 90.6172L52.5 90H59.0625C61.6514 90 63.75 87.9013 63.75 85.3125C63.75 82.7237 61.6514 80.625 59.0625 80.625H37.5Z" fill="#FF822D"/>
<path d="M26.7992 15.5492C28.2877 14.0607 32.3628 11.25 37.5 11.25C42.6372 11.25 46.7123 14.0607 48.2008 15.5492C48.9331 16.2814 48.9331 17.4686 48.2008 18.2008C47.4686 18.9331 46.2814 18.9331 45.5492 18.2008C44.5377 17.1893 41.3628 15 37.5 15C33.6372 15 30.4623 17.1893 29.4508 18.2008C28.7186 18.9331 27.5314 18.9331 26.7992 18.2008C26.0669 17.4686 26.0669 16.2814 26.7992 15.5492Z" fill="#402A32"/>
<path d="M68.1747 30.4346C69.9396 28.9638 74.701 26.25 80.625 26.25C86.549 26.25 91.3104 28.9638 93.0753 30.4346C93.8709 31.0975 93.9784 32.2798 93.3154 33.0753C92.6525 33.8709 91.4702 33.9783 90.6747 33.3154C89.4396 32.2862 85.501 30 80.625 30C75.749 30 71.8104 32.2862 70.5753 33.3154C69.7798 33.9783 68.5975 33.8709 67.9346 33.0753C67.2717 32.2798 67.3791 31.0975 68.1747 30.4346Z" fill="#402A32"/>
<path d="M51.4016 73.9017C52.7326 72.5708 55.9174 70.4463 60.3056 71.1965C64.8826 71.979 66.7961 74.312 67.8487 76.5792C68.7209 78.4576 70.9507 79.2734 72.8292 78.4012C74.7077 77.5291 75.5234 75.2992 74.6513 73.4208C72.7216 69.2647 68.9306 65.0622 61.5694 63.8038C54.0193 62.513 48.5174 66.1794 46.0984 68.5983C44.6339 70.0627 44.6339 72.4371 46.0983 73.9016C47.5627 75.3661 49.9371 75.3661 51.4016 73.9017Z" fill="#402A32"/>
<path d="M45 43.125C45 47.2671 41.6421 50.625 37.5 50.625C33.3579 50.625 30 47.2671 30 43.125C30 38.9829 33.3579 35.625 37.5 35.625C41.6421 35.625 45 38.9829 45 43.125Z" fill="#402A32"/>
<path d="M86.25 43.125C86.25 47.2671 82.8921 50.625 78.75 50.625C74.6079 50.625 71.25 47.2671 71.25 43.125C71.25 38.9829 74.6079 35.625 78.75 35.625C82.8921 35.625 86.25 38.9829 86.25 43.125Z" fill="#402A32"/>
</svg>
