<svg width="200" height="200" viewBox="0 0 200 200" fill="none" xmlns="http://www.w3.org/2000/svg">
<path d="M49.926 86.7328C50.573 93.6117 46.9066 99.5667 41.7843 99.9774C36.662 100.388 31.9711 95.1519 31.324 88.273C30.677 81.394 34.3434 75.439 39.4657 75.0284C44.588 74.5664 49.2789 79.8025 49.926 86.7328Z" fill="white"/>
<path d="M79.2843 162.477C84.4066 162.067 88.073 156.112 87.426 149.233C86.7789 142.303 82.088 137.066 76.9657 137.528C71.8434 137.939 68.177 143.894 68.824 150.773C69.4711 157.652 74.162 162.888 79.2843 162.477Z" fill="white"/>
<path d="M160.534 75.0226C165.657 75.4333 169.323 81.3883 168.676 88.2672C168.029 95.1975 163.338 100.434 158.216 99.9716C153.093 99.561 149.427 93.606 150.074 86.727C150.721 79.8481 155.412 74.6119 160.534 75.0226Z" fill="white"/>
<path d="M149.926 119.517C150.573 112.638 146.907 106.683 141.784 106.273C136.662 105.862 131.971 111.098 131.324 117.977C130.677 124.856 134.343 130.811 139.466 131.222C144.588 131.684 149.279 126.447 149.926 119.517Z" fill="white"/>
<path d="M123.034 137.523C128.157 137.933 131.823 143.888 131.176 150.767C130.529 157.697 125.838 162.934 120.716 162.472C115.593 162.061 111.927 156.106 112.574 149.227C113.221 142.348 117.912 137.112 123.034 137.523Z" fill="white"/>
<path d="M86.7678 15.3192L28.0893 40.6494C26.7191 41.2634 25.4884 42.0911 24.4047 43.0849C17.7933 44.7263 12.5 50.6441 12.5 58.272V146.832C12.5 154.276 16.9035 161.015 23.7208 164.004L84.3507 190.588C86.208 191.402 88.1057 191.825 89.9692 191.906C96.4954 194.365 103.505 194.365 110.031 191.906C111.894 191.825 113.792 191.402 115.649 190.588L176.279 164.004C183.097 161.015 187.5 154.276 187.5 146.832V58.272C187.5 50.9403 182.61 45.1884 176.359 43.2953C175.279 42.2077 174.01 41.3062 172.545 40.6494L113.232 15.3192C104.863 11.5603 95.2553 11.5603 86.7678 15.3192ZM93.75 92.5567V176.278C93.75 178.533 91.4351 180.045 89.3701 179.14L28.7403 152.556C26.4678 151.56 25 149.313 25 146.832V58.272C25 56.0024 27.3431 54.4898 29.4115 55.4241L86.3958 81.165C90.8727 83.1873 93.75 87.6442 93.75 92.5567ZM106.25 176.278V92.5567C106.25 87.6442 109.127 83.1873 113.604 81.165L170.589 55.4241C172.657 54.4898 175 56.0024 175 58.272V146.832C175 149.313 173.532 151.56 171.26 152.556L110.63 179.14C108.565 180.045 106.25 178.533 106.25 176.278ZM99.9999 46.875C89.6445 46.875 81.25 44.0768 81.25 40.625C81.25 37.1732 89.6445 34.375 99.9999 34.375C110.355 34.375 118.75 37.1732 118.75 40.625C118.75 44.0768 110.355 46.875 99.9999 46.875Z" fill="white"/>
</svg>
