<svg width="24" height="24" viewBox="0 0 24 24" fill="none" xmlns="http://www.w3.org/2000/svg">
<path d="M11.9998 20.1601C7.48784 20.1601 3.83984 16.5121 3.83984 12.0001C3.83984 7.48809 7.48784 3.84009 11.9998 3.84009C16.5118 3.84009 20.1598 7.48809 20.1598 12.0001C20.1598 16.5121 16.5118 20.1601 11.9998 20.1601ZM11.9998 4.80009C8.01584 4.80009 4.79984 8.01609 4.79984 12.0001C4.79984 15.9841 8.01584 19.2001 11.9998 19.2001C15.9838 19.2001 19.1998 15.9841 19.1998 12.0001C19.1998 8.01609 15.9838 4.80009 11.9998 4.80009Z" fill="#37BC41"/>
<path d="M7.67969 11.52H16.3197V12.48H7.67969V11.52Z" fill="#37BC41"/>
<path d="M11.5195 7.67993H12.4795V16.3199H11.5195V7.67993Z" fill="#37BC41"/>
</svg>
