<svg width="16" height="16" viewBox="0 0 16 16" fill="none" xmlns="http://www.w3.org/2000/svg">
<path d="M11.5 4.5C11.5 5.42826 11.1313 6.3185 10.4749 6.97487C9.8185 7.63125 8.92826 8 8 8C7.07174 8 6.1815 7.63125 5.52513 6.97487C4.86875 6.3185 4.5 5.42826 4.5 4.5C4.5 3.57174 4.86875 2.6815 5.52513 2.02513C6.1815 1.36875 7.07174 1 8 1C8.92826 1 9.8185 1.36875 10.4749 2.02513C11.1313 2.6815 11.5 3.57174 11.5 4.5ZM10.5 4.5C10.5 3.83696 10.2366 3.20107 9.76777 2.73223C9.29893 2.26339 8.66304 2 8 2C7.33696 2 6.70107 2.26339 6.23223 2.73223C5.76339 3.20107 5.5 3.83696 5.5 4.5C5.5 5.16304 5.76339 5.79893 6.23223 6.26777C6.70107 6.73661 7.33696 7 8 7C8.66304 7 9.29893 6.73661 9.76777 6.26777C10.2366 5.79893 10.5 5.16304 10.5 4.5ZM3.75 9C3.28587 9 2.84075 9.18437 2.51256 9.51256C2.18437 9.84075 2 10.2859 2 10.75V11C2 12.1965 2.7615 13.2085 3.8425 13.8965C4.9295 14.5885 6.401 15 8 15C9.599 15 11.07 14.5885 12.1575 13.8965C13.2385 13.2085 14 12.1965 14 11V10.75C14 10.2859 13.8156 9.84075 13.4874 9.51256C13.1592 9.18437 12.7141 9 12.25 9H3.75ZM3 10.75C3 10.5511 3.07902 10.3603 3.21967 10.2197C3.36032 10.079 3.55109 10 3.75 10H12.25C12.4489 10 12.6397 10.079 12.7803 10.2197C12.921 10.3603 13 10.5511 13 10.75V11C13 11.7365 12.53 12.4745 11.6205 13.053C10.717 13.628 9.4385 14 8 14C6.5615 14 5.283 13.628 4.3795 13.053C3.4695 12.475 3 11.736 3 11V10.75Z" fill="#828282"/>
</svg>
