<svg width="24" height="24" viewBox="0 0 24 24" fill="none" xmlns="http://www.w3.org/2000/svg">
<mask id="mask0_362_1144" style="mask-type:alpha" maskUnits="userSpaceOnUse" x="0" y="0" width="24" height="24">
<rect width="24" height="24" fill="#D9D9D9"/>
</mask>
<g mask="url(#mask0_362_1144)">
<path d="M22.9368 11.7165C22.9047 11.6474 22.1283 10.0032 20.4022 8.35562C18.1023 6.16025 15.1973 5 12 5C8.80266 5 5.89774 6.16025 3.59783 8.35562C1.87174 10.0032 1.09166 11.65 1.06324 11.7165C1.02154 11.806 1 11.9029 1 12.0009C1 12.0988 1.02154 12.1957 1.06324 12.2852C1.09532 12.3544 1.87174 13.9976 3.59783 15.6453C5.89774 17.8398 8.80266 19 12 19C15.1973 19 18.1023 17.8398 20.4022 15.6453C22.1283 13.9976 22.9047 12.3544 22.9368 12.2852C22.9785 12.1957 23 12.0988 23 12.0009C23 11.9029 22.9785 11.806 22.9368 11.7165ZM12 17.6C9.1785 17.6 6.71358 16.6209 4.67308 14.6906C3.83583 13.8959 3.12353 12.9896 2.55833 12C3.12338 11.0103 3.8357 10.104 4.67308 9.30937C6.71358 7.37912 9.1785 6.4 12 6.4C14.8215 6.4 17.2864 7.37912 19.3269 9.30937C20.1658 10.1038 20.8797 11.0101 21.4463 12C20.7853 13.1777 17.9061 17.6 12 17.6ZM12 7.8C11.1298 7.8 10.2791 8.04633 9.55549 8.50783C8.83191 8.96933 8.26795 9.62528 7.93493 10.3927C7.6019 11.1602 7.51477 12.0047 7.68454 12.8194C7.85432 13.6341 8.27338 14.3825 8.88873 14.9698C9.50408 15.5572 10.2881 15.9572 11.1416 16.1193C11.9951 16.2814 12.8798 16.1982 13.6838 15.8803C14.4878 15.5624 15.175 15.0241 15.6585 14.3334C16.1419 13.6427 16.4 12.8307 16.4 12C16.3988 10.8864 15.9348 9.81883 15.1099 9.03143C14.285 8.24403 13.1666 7.80116 12 7.8ZM12 14.8C11.4198 14.8 10.8527 14.6358 10.3703 14.3281C9.88794 14.0204 9.51197 13.5831 9.28995 13.0715C9.06793 12.5599 9.00984 11.9969 9.12303 11.4537C9.23621 10.9106 9.51558 10.4117 9.92582 10.0201C10.3361 9.62851 10.8587 9.36184 11.4277 9.2538C11.9967 9.14576 12.5865 9.20121 13.1225 9.41314C13.6585 9.62506 14.1167 9.98395 14.439 10.4444C14.7613 10.9049 14.9333 11.4462 14.9333 12C14.9333 12.7426 14.6243 13.4548 14.0742 13.9799C13.5241 14.505 12.778 14.8 12 14.8Z" fill="#828282"/>
</g>
</svg>
